# xmcd
#
# Track frame offsets:
#	150
#	17492
#	35439
#	53126
#	67081
#	82934
#	94951
#	111013
#	126417
#	143202
#	156037
#	169379
#	186603
#	202659
#	223142
#
# Disc length: 3131 seconds
#
# Revision: 0
# Processed by: cddbd v1.5.2PL0 Copyright (c) Steve Scherf et al.
# Submitted via: EasyCDDAExtractor 10.0.6.1
#
DISCID=d80c390f
DTITLE=Don Vilanova - Adiós Botafogo, bienvenido Don Vilanova
DYEAR=2008
DGENRE=Blues
TTITLE0=Poco a poco
TTITLE1=Si me preguntas quién soy
TTITLE2=Vaivén
TTITLE3=Radiador
TTITLE4=Imagine
TTITLE5=En las sombras del mundo interior
TTITLE6=Podés encontrar a Dios
TTITLE7=Todos tenemos nada
TTITLE8=No vas a escuchar
TTITLE9=Si querés ver algunos cambios
TTITLE10=Soy producto del amor
TTITLE11=Malas nuevas
TTITLE12=Un mundo mejor es posible
TTITLE13=Astrónomo
TTITLE14=Frutas, verduras y semillas crudas
EXTD=
EXTT0=
EXTT1=
EXTT2=
EXTT3=
EXTT4=
EXTT5=
EXTT6=
EXTT7=
EXTT8=
EXTT9=
EXTT10=
EXTT11=
EXTT12=
EXTT13=
EXTT14=
PLAYORDER=
